<?xml version="1.0" standalone="no"?><!DOCTYPE svg PUBLIC "-//W3C//DTD SVG 1.1//EN"
        "http://www.w3.org/Graphics/SVG/1.1/DTD/svg11.dtd">
<svg t="1683001338986" class="icon" viewBox="0 0 1024 1024" version="1.1"
     xmlns="http://www.w3.org/2000/svg" p-id="10339" width="200" height="200">
    <path d="M192 512a320 320 0 1 1 640 0 320 320 0 0 1-640 0zM512 128a384 384 0 1 0 0 768 384 384 0 0 0 0-768z m113.152 522.112a32 32 0 0 0-45.269333-45.226667 96 96 0 0 1-135.765334 0 32 32 0 0 0-45.226666 45.226667 160 160 0 0 0 226.261333 0zM426.666667 384a42.666667 42.666667 0 1 1 0 85.333333 42.666667 42.666667 0 0 1 0-85.333333z m213.333333 42.666667a42.666667 42.666667 0 1 0-85.333333 0 42.666667 42.666667 0 0 0 85.333333 0z"
          fill="#2c2c2c" p-id="10340"></path>
</svg>
